<?xml version="1.0" encoding="UTF-8" standalone="no"?><!DOCTYPE svg PUBLIC "-//W3C//DTD SVG 1.1//EN" "http://www.w3.org/Graphics/SVG/1.1/DTD/svg11.dtd"><svg width="100%" height="100%" viewBox="0 0 466 39" version="1.1" xmlns="http://www.w3.org/2000/svg" xmlns:xlink="http://www.w3.org/1999/xlink" xml:space="preserve" xmlns:serif="http://www.serif.com/" style="fill-rule:evenodd;clip-rule:evenodd;stroke-linejoin:round;stroke-miterlimit:2;"><path d="M32.177,38.313c8.922,-0 16.156,-7.261 16.156,-16.183l-0,-5.948c-0,-8.921 -7.234,-16.182 -16.156,-16.182l-15.995,-0c-8.921,-0 -16.182,7.261 -16.182,16.182l0,5.948c0,8.922 7.261,16.183 16.182,16.183l15.995,-0Zm0,-5.573l-15.995,-0c-5.84,-0 -10.609,-4.742 -10.609,-10.61l-0,-5.948c-0,-5.867 4.769,-10.609 10.609,-10.609l15.995,-0c5.841,-0 10.61,4.742 10.61,10.609l0,5.948c0,5.868 -4.769,10.61 -10.61,10.61Zm-8.011,-9.35c2.599,-0 4.662,-2.09 4.662,-4.662c0,-2.572 -2.063,-4.662 -4.662,-4.662c-2.572,-0 -4.661,2.09 -4.661,4.662c-0,2.572 2.089,4.662 4.661,4.662Z" style="fill:url(#_Linear1);fill-rule:nonzero;"/><path d="M82.922,38.34c10.556,-0 19.156,-8.601 19.156,-19.157l0,-18.781c0,-0.214 -0.161,-0.402 -0.375,-0.402l-4.796,-0c-0.214,-0 -0.375,0.188 -0.375,0.402l0,18.781c0,7.502 -6.109,13.611 -13.61,13.611l-10.047,-0c-7.529,-0 -13.611,-6.109 -13.611,-13.611l0,-18.781c0,-0.214 -0.187,-0.402 -0.402,-0.402l-4.769,-0c-0.214,-0 -0.402,0.188 -0.402,0.402l0,18.781c0,10.583 8.601,19.157 19.184,19.157l10.047,-0Zm-5.037,-14.924c2.599,0 4.688,-2.089 4.688,-4.662c0,-2.598 -2.089,-4.688 -4.688,-4.688c-2.572,-0 -4.662,2.09 -4.662,4.688c-0,2.573 2.09,4.662 4.662,4.662Z" style="fill:url(#_Linear2);fill-rule:nonzero;"/><path d="M154.939,38.34c0.214,-0 0.402,-0.215 0.402,-0.429l-0.054,-0.188l-9.002,-15.673l-0.054,-0.188c0,-0.16 0.134,-0.321 0.322,-0.375c5.117,-0.83 9.082,-5.251 9.082,-10.609l0,-0.268c-0.053,-5.895 -5.063,-10.556 -10.958,-10.556l-26.47,-0c-5.707,-0 -10.342,4.447 -10.771,9.993l0,27.864c0,0.214 0.134,0.429 0.349,0.429l4.796,-0c0.214,-0 0.401,-0.215 0.401,-0.429l0,-16.986c0,-0.295 0.215,-0.429 0.429,-0.429l0.134,0.027c1.393,0.696 2.974,1.098 4.662,1.098l21.353,0c0.134,0 0.268,0.081 0.348,0.215l9.565,16.504l5.466,-0Zm-10.02,-22.292l-26.739,0c-2.867,0 -5.198,-2.33 -5.198,-5.197c0,-2.894 2.331,-5.225 5.198,-5.225l26.739,0c2.866,0 5.197,2.331 5.197,5.225c0,2.867 -2.331,5.197 -5.197,5.197Z" style="fill:url(#_Linear3);fill-rule:nonzero;"/><path d="M193.171,38.313c8.922,-0 16.156,-7.261 16.156,-16.183l-0,-5.948c-0,-8.921 -7.234,-16.182 -16.156,-16.182l-15.995,-0c-8.921,-0 -16.182,7.261 -16.182,16.182l-0,5.948c-0,8.922 7.261,16.183 16.182,16.183l15.995,-0Zm0,-5.573l-15.995,-0c-5.84,-0 -10.609,-4.742 -10.609,-10.61l-0,-5.948c-0,-5.867 4.769,-10.609 10.609,-10.609l15.995,-0c5.841,-0 10.61,4.742 10.61,10.609l-0,5.948c-0,5.868 -4.769,10.61 -10.61,10.61Zm-8.011,-9.35c2.599,-0 4.662,-2.09 4.662,-4.662c0,-2.572 -2.063,-4.662 -4.662,-4.662c-2.572,-0 -4.661,2.09 -4.661,4.662c-0,2.572 2.089,4.662 4.661,4.662Z" style="fill:url(#_Linear4);fill-rule:nonzero;"/><path d="M400.101,23.818c2.599,0 4.662,-2.09 4.662,-4.662c-0,-2.572 -2.063,-4.661 -4.662,-4.661c-2.572,-0 -4.662,2.089 -4.662,4.661c0,2.572 2.09,4.662 4.662,4.662Z" style="fill:url(#_Linear5);fill-rule:nonzero;"/><path d="M437.417,23.818c2.599,0 4.662,-2.09 4.662,-4.662c-0,-2.572 -2.063,-4.661 -4.662,-4.661c-2.572,-0 -4.662,2.089 -4.662,4.661c0,2.572 2.09,4.662 4.662,4.662Z" style="fill:url(#_Linear6);fill-rule:nonzero;"/><path d="M247.05,38.313c8.815,-0 15.968,-7.127 15.968,-15.942l0,-0.321c0,-0.241 -0.16,-0.402 -0.375,-0.402l-4.769,0c-0.214,0 -0.402,0.161 -0.402,0.402l0,0.321c0,5.734 -4.661,10.396 -10.422,10.396l-13.208,-0c-7.475,-0 -13.611,-6.082 -13.611,-13.584c0.081,-7.609 6.189,-13.637 13.852,-13.637l12.887,-0c5.653,-0 10.288,4.528 10.502,10.127c0,0.215 0.188,0.375 0.402,0.375l4.742,0c0.242,0 0.402,-0.16 0.402,-0.401c-0.214,-8.654 -7.341,-15.647 -16.048,-15.647l-13.128,-0c-10.556,-0 -19.157,8.573 -19.157,19.13c0.081,10.743 8.681,19.183 19.451,19.183l12.914,-0Zm-8.198,-14.923c2.572,-0 4.662,-2.09 4.662,-4.662c-0,-2.572 -2.09,-4.662 -4.662,-4.662c-2.572,-0 -4.662,2.09 -4.662,4.662c-0,2.572 2.09,4.662 4.662,4.662Z" style="fill:url(#_Linear7);fill-rule:nonzero;"/><path d="M300.554,38.313c8.922,-0 16.156,-7.261 16.156,-16.183l-0,-5.948c-0,-8.921 -7.234,-16.182 -16.156,-16.182l-15.995,-0c-8.922,-0 -16.182,7.261 -16.182,16.182l-0,5.948c-0,8.922 7.26,16.183 16.182,16.183l15.995,-0Zm0,-5.573l-15.995,-0c-5.84,-0 -10.609,-4.742 -10.609,-10.61l-0,-5.948c-0,-5.867 4.769,-10.609 10.609,-10.609l15.995,-0c5.841,-0 10.61,4.742 10.61,10.609l-0,5.948c-0,5.868 -4.769,10.61 -10.61,10.61Zm-8.011,-9.35c2.599,-0 4.662,-2.09 4.662,-4.662c0,-2.572 -2.063,-4.662 -4.662,-4.662c-2.572,-0 -4.662,2.09 -4.662,4.662c0,2.572 2.09,4.662 4.662,4.662Z" style="fill:url(#_Linear8);fill-rule:nonzero;"/><path d="M355.585,38.313c6.162,-0 11.172,-4.984 11.172,-11.119c0,-6.243 -5.01,-11.306 -11.306,-11.306l-3.242,-0c-0.214,-0 -0.375,0.187 -0.375,0.402l0,4.769c0,0.214 0.161,0.401 0.375,0.401l3.242,0c3.162,0 5.734,2.546 5.734,5.68l-0,0.054c-0,3.081 -2.519,5.573 -5.6,5.573l-32.847,-0c-0.214,-0 -0.402,0.161 -0.402,0.375l0,4.769c0,0.214 0.188,0.402 0.402,0.402l32.847,-0Zm-18.995,-16.853c0.214,0 0.401,-0.187 0.401,-0.401l0,-4.769c0,-0.215 -0.187,-0.402 -0.401,-0.402l-3.885,-0c-2.787,-0 -5.091,-2.251 -5.091,-5.037c0,-2.947 2.036,-5.305 5.091,-5.305l33.409,-0c0.215,-0 0.376,-0.161 0.376,-0.375l-0,-4.769c-0,-0.214 -0.161,-0.402 -0.376,-0.402l-33.409,0c-5.868,0 -10.637,4.742 -10.637,10.583c0,6.028 4.528,10.877 10.637,10.877l3.885,0Zm7.823,1.93c2.572,-0 4.662,-2.09 4.662,-4.662c-0,-2.572 -2.09,-4.662 -4.662,-4.662c-2.572,-0 -4.662,2.09 -4.662,4.662c-0,2.572 2.09,4.662 4.662,4.662Z" style="fill:url(#_Linear9);fill-rule:nonzero;"/><path d="M465.245,38.34c0.241,-0 0.402,-0.188 0.402,-0.402l-0.053,-0.215l-18.675,-32.338c-1.875,-3.322 -5.331,-5.251 -9.082,-5.331c-3.885,-0 -7.475,2.143 -9.431,5.546l-9.484,16.45l-9.592,-16.45c-1.929,-3.403 -5.465,-5.546 -9.35,-5.546c-3.805,0.08 -7.207,2.009 -9.163,5.331l-18.648,32.338l-0.053,0.188c-0,0.214 0.187,0.429 0.402,0.429l5.465,-0c0.161,-0 0.295,-0.081 0.349,-0.215l17.2,-29.819c0.992,-1.581 2.653,-2.626 4.528,-2.706c1.795,-0 3.456,0.964 4.421,2.572l11.172,19.424c3.939,6.725 2.036,3.402 6.109,10.529c0.053,0.134 0.214,0.215 0.348,0.215l5.466,-0c0.214,-0 0.401,-0.215 0.401,-0.429l-0.053,-0.188l-5.814,-10.127l11.146,-19.29c0.91,-1.581 2.572,-2.626 4.447,-2.706c1.875,-0 3.483,0.964 4.447,2.572l17.255,29.953c0.08,0.134 0.214,0.215 0.348,0.215l5.492,-0Z" style="fill:url(#_Linear10);fill-rule:nonzero;"/><defs><linearGradient id="_Linear1" x1="0" y1="0" x2="1" y2="0" gradientUnits="userSpaceOnUse" gradientTransform="matrix(385.13,-99.0805,99.0805,385.13,60.6247,72.4112)"><stop offset="0" style="stop-color:#ff00d3;stop-opacity:1"/><stop offset="1" style="stop-color:#00b2d3;stop-opacity:1"/></linearGradient><linearGradient id="_Linear2" x1="0" y1="0" x2="1" y2="0" gradientUnits="userSpaceOnUse" gradientTransform="matrix(385.13,-99.0805,99.0805,385.13,60.6247,72.4112)"><stop offset="0" style="stop-color:#ff00d3;stop-opacity:1"/><stop offset="1" style="stop-color:#00b2d3;stop-opacity:1"/></linearGradient><linearGradient id="_Linear3" x1="0" y1="0" x2="1" y2="0" gradientUnits="userSpaceOnUse" gradientTransform="matrix(385.13,-99.0805,99.0805,385.13,60.6247,72.4112)"><stop offset="0" style="stop-color:#ff00d3;stop-opacity:1"/><stop offset="1" style="stop-color:#00b2d3;stop-opacity:1"/></linearGradient><linearGradient id="_Linear4" x1="0" y1="0" x2="1" y2="0" gradientUnits="userSpaceOnUse" gradientTransform="matrix(385.13,-99.0805,99.0805,385.13,60.6247,72.4112)"><stop offset="0" style="stop-color:#ff00d3;stop-opacity:1"/><stop offset="1" style="stop-color:#00b2d3;stop-opacity:1"/></linearGradient><linearGradient id="_Linear5" x1="0" y1="0" x2="1" y2="0" gradientUnits="userSpaceOnUse" gradientTransform="matrix(385.13,-99.0805,99.0805,385.13,60.6247,72.4112)"><stop offset="0" style="stop-color:#ff00d3;stop-opacity:1"/><stop offset="1" style="stop-color:#00b2d3;stop-opacity:1"/></linearGradient><linearGradient id="_Linear6" x1="0" y1="0" x2="1" y2="0" gradientUnits="userSpaceOnUse" gradientTransform="matrix(385.13,-99.0805,99.0805,385.13,60.6247,72.4112)"><stop offset="0" style="stop-color:#ff00d3;stop-opacity:1"/><stop offset="1" style="stop-color:#00b2d3;stop-opacity:1"/></linearGradient><linearGradient id="_Linear7" x1="0" y1="0" x2="1" y2="0" gradientUnits="userSpaceOnUse" gradientTransform="matrix(385.13,-99.0805,99.0805,385.13,60.6247,72.4112)"><stop offset="0" style="stop-color:#ff00d3;stop-opacity:1"/><stop offset="1" style="stop-color:#00b2d3;stop-opacity:1"/></linearGradient><linearGradient id="_Linear8" x1="0" y1="0" x2="1" y2="0" gradientUnits="userSpaceOnUse" gradientTransform="matrix(385.13,-99.0805,99.0805,385.13,60.6247,72.4112)"><stop offset="0" style="stop-color:#ff00d3;stop-opacity:1"/><stop offset="1" style="stop-color:#00b2d3;stop-opacity:1"/></linearGradient><linearGradient id="_Linear9" x1="0" y1="0" x2="1" y2="0" gradientUnits="userSpaceOnUse" gradientTransform="matrix(385.13,-99.0805,99.0805,385.13,60.6247,72.4112)"><stop offset="0" style="stop-color:#ff00d3;stop-opacity:1"/><stop offset="1" style="stop-color:#00b2d3;stop-opacity:1"/></linearGradient><linearGradient id="_Linear10" x1="0" y1="0" x2="1" y2="0" gradientUnits="userSpaceOnUse" gradientTransform="matrix(385.13,-99.0805,99.0805,385.13,60.6247,72.4112)"><stop offset="0" style="stop-color:#ff00d3;stop-opacity:1"/><stop offset="1" style="stop-color:#00b2d3;stop-opacity:1"/></linearGradient></defs></svg>